<svg width="128" height="129" viewBox="0 0 128 129" fill="none" xmlns="http://www.w3.org/2000/svg">
<path d="M63.0838 0.0581055L120.046 32.0476V96.0263L91.5647 112.021L63.0838 128.015L6.12207 96.0263V32.0476L63.0838 0.0581055Z" fill="white"/>
<path d="M63.0828 7.16602L113.716 35.5913V92.4418L63.0828 120.867L12.4502 92.4418V35.5913L63.0828 7.16602Z" fill="#5985E3"/>
<path d="M62.834 60.8711L113.709 35.5837L113.721 92.4246L63.0649 120.906L62.834 60.8711Z" fill="#386DE6"/>
<path fill-rule="evenodd" clip-rule="evenodd" d="M63.0522 19.5777L102.25 41.3397L113.687 35.6385L63.0906 7.15332L63.0522 7.17505L63.0138 7.15332L12.417 35.6385L12.4455 35.6526L12.436 92.4302L23.5593 98.7004L23.5612 98.3697V98.6468L63.1087 120.893V120.857L113.699 92.4467V86.0788V79.6545L63.1087 108.106V108.1L23.6312 85.9344L23.8823 41.3387L23.8685 41.3318L63.0522 19.5777Z" fill="#17181A"/>
</svg>
