<svg width="16" height="17" viewBox="0 0 16 17" fill="none" xmlns="http://www.w3.org/2000/svg">
<path d="M7.88584 0.00732422L15.0061 4.00601V12.0033L11.4459 14.0027L7.88584 16.002L0.765625 12.0033V4.00601L7.88584 0.00732422Z" fill="white"/>
<path d="M7.88572 0.895752L14.2148 4.44892V11.5552L7.88572 15.1083L1.55664 11.5552V4.44892L7.88572 0.895752Z" fill="#5985E3"/>
<path d="M7.85449 7.60892L14.2138 4.448L14.2153 11.5531L7.88336 15.1132L7.85449 7.60892Z" fill="#386DE6"/>
<path fill-rule="evenodd" clip-rule="evenodd" d="M7.88214 2.44734L12.7819 5.16758L14.2115 4.45493L7.88694 0.894287L7.88214 0.897003L7.87733 0.894287L1.55273 4.45493L1.5563 4.4567L1.55511 11.5539L2.94552 12.3377L2.94575 12.2963V12.331L7.88919 15.1117V15.1073L14.213 11.556V10.76V9.95693L7.88919 13.5133V13.5126L2.95451 10.7419L2.9859 5.16746L2.98417 5.1666L7.88214 2.44734Z" fill="#17181A"/>
</svg>
