<svg width="24" height="25" viewBox="0 0 24 25" fill="none" xmlns="http://www.w3.org/2000/svg">
<path d="M11.8278 0.0109863L22.5081 6.00902V18.005L17.1679 21.004L11.8278 24.003L1.14746 18.005V6.00902L11.8278 0.0109863Z" fill="white"/>
<path d="M11.8276 1.34375L21.3213 6.6735V17.333L11.8276 22.6626L2.33398 17.333V6.6735L11.8276 1.34375Z" fill="#5985E3"/>
<path d="M11.7812 11.4135L21.3202 6.67212L21.3225 17.3298L11.8245 22.67L11.7812 11.4135Z" fill="#386DE6"/>
<path fill-rule="evenodd" clip-rule="evenodd" d="M11.8213 3.67089L19.1709 7.75126L21.3154 6.68228L11.8285 1.34131L11.8213 1.34538L11.814 1.34131L2.32715 6.68228L2.33249 6.68492L2.33071 17.3307L4.41633 18.5064L4.41668 18.4444V18.4963L11.8318 22.6674V22.6608L21.3176 17.3338V16.1398V14.9353L11.8318 20.2698V20.2688L4.42981 16.1128L4.47689 7.75106L4.4743 7.74977L11.8213 3.67089Z" fill="#17181A"/>
</svg>
