<svg width="256" height="257" viewBox="0 0 256 257" fill="none" xmlns="http://www.w3.org/2000/svg">
<path d="M126.168 0.116211L240.091 64.0952V192.053L183.129 224.042L126.168 256.031L12.2441 192.053V64.0952L126.168 0.116211Z" fill="white"/>
<path d="M126.166 14.332L227.431 71.1827V184.884L126.166 241.733L24.9004 184.884V71.1827L126.166 14.332Z" fill="#5985E3"/>
<path d="M125.668 121.742L227.417 71.1675L227.441 184.849L126.13 241.811L125.668 121.742Z" fill="#386DE6"/>
<path fill-rule="evenodd" clip-rule="evenodd" d="M126.104 39.1555L204.501 82.6794L227.375 71.277L126.181 14.3066L126.104 14.3501L126.028 14.3066L24.834 71.277L24.891 71.3052L24.8719 184.86L47.1186 197.401L47.1223 196.739V197.294L126.217 241.785V241.714L227.399 184.893V172.158V159.309L126.217 216.211V216.2L47.2624 171.869L47.7646 82.6773L47.737 82.6636L126.104 39.1555Z" fill="#17181A"/>
</svg>
