<svg width="36" height="37" viewBox="0 0 36 37" fill="none" xmlns="http://www.w3.org/2000/svg">
<path d="M17.7422 0.0163574L33.7627 9.0134V27.0074L25.7524 31.5059L17.7422 36.0043L1.72168 27.0074V9.0134L17.7422 0.0163574Z" fill="white"/>
<path d="M17.7414 2.01538L31.9819 10.01V25.9992L17.7414 33.9937L3.50098 25.9992V10.01L17.7414 2.01538Z" fill="#5985E3"/>
<path d="M17.6719 17.1201L31.9804 10.0081L31.9837 25.9946L17.7368 34.0048L17.6719 17.1201Z" fill="#386DE6"/>
<path fill-rule="evenodd" clip-rule="evenodd" d="M17.7333 5.50633L28.7578 11.6269L31.9745 10.0234L17.7442 2.01196L17.7333 2.01807L17.7225 2.01196L3.49219 10.0234L3.5002 10.0274L3.49752 25.9961L6.62596 27.7596L6.62648 27.6666V27.7445L17.7492 34.0011V33.9912L31.9778 26.0007V24.2097V22.4029L17.7492 30.4048V30.4032L6.64618 24.1691L6.7168 11.6266L6.71292 11.6247L17.7333 5.50633Z" fill="#17181A"/>
</svg>
