<svg width="48" height="49" viewBox="0 0 48 49" fill="none" xmlns="http://www.w3.org/2000/svg">
<path d="M23.6565 0.0217285L45.0172 12.0178V36.0098L34.3369 42.0077L23.6565 48.0057L2.2959 36.0098V12.0178L23.6565 0.0217285Z" fill="white"/>
<path d="M23.6562 2.68726L42.6435 13.3468V34.6657L23.6562 45.325L4.66895 34.6657V13.3468L23.6562 2.68726Z" fill="#5985E3"/>
<path d="M23.5625 22.8265L42.6405 13.3438L42.6449 34.6591L23.6491 45.3394L23.5625 22.8265Z" fill="#386DE6"/>
<path fill-rule="evenodd" clip-rule="evenodd" d="M23.6445 7.34153L38.3438 15.5023L42.6327 13.3643L23.6589 2.68237L23.6445 2.69052L23.63 2.68237L4.65625 13.3643L4.66694 13.3696L4.66337 34.6612L8.83461 37.0125L8.83531 36.8885V36.9924L23.6656 45.3346V45.3213L42.6371 34.6674V32.2794V29.8703L23.6656 40.5394V40.5374L8.86157 32.2253L8.95574 15.5019L8.95056 15.4993L23.6445 7.34153Z" fill="#17181A"/>
</svg>
