<svg width="665" height="512" viewBox="0 0 665 512" fill="none" xmlns="http://www.w3.org/2000/svg">
<path d="M227.847 0L455.694 127.958V383.873L341.77 447.851L227.847 511.829L0 383.873L0 127.958L227.847 0Z" fill="white"/>
<path d="M227.843 28.4316L430.374 142.133V369.535L227.843 483.235L25.3125 369.535V142.133L227.843 28.4316Z" fill="#5985E3"/>
<path d="M226.848 243.252L430.346 142.103L430.394 369.466L227.771 483.39L226.848 243.252Z" fill="#386DE6"/>
<path fill-rule="evenodd" clip-rule="evenodd" d="M227.721 78.0785L384.513 165.126L430.261 142.322L227.874 28.3809L227.721 28.4678L227.567 28.3809L25.1797 142.322L25.2937 142.378L25.2556 369.488L69.7489 394.569L69.7563 393.246V394.355L227.946 483.338V483.196L430.309 369.554V344.083V318.385L227.946 432.19V432.168L70.0364 343.505L71.0409 165.122L70.9857 165.095L227.721 78.0785Z" fill="#17181A"/>
</svg>
