<svg width="64" height="65" viewBox="0 0 64 65" fill="none" xmlns="http://www.w3.org/2000/svg">
<path d="M31.5414 0.0290527L60.0223 16.0238V48.0131L45.7818 56.0104L31.5414 64.0077L3.06055 48.0131V16.0238L31.5414 0.0290527Z" fill="white"/>
<path d="M31.5409 3.58301L56.8573 17.7957V46.2209L31.5409 60.4334L6.22461 46.2209V17.7957L31.5409 3.58301Z" fill="#5985E3"/>
<path d="M31.417 30.4354L56.8543 17.7917L56.8603 46.2122L31.5325 60.4527L31.417 30.4354Z" fill="#386DE6"/>
<path fill-rule="evenodd" clip-rule="evenodd" d="M31.5256 9.78887L51.1247 20.6699L56.8432 17.8192L31.5448 3.57666L31.5256 3.58753L31.5064 3.57666L6.20801 17.8192L6.22226 17.8263L6.2175 46.2151L11.7792 49.3502L11.7801 49.1848V49.3234L31.5538 60.4463V60.4286L56.8492 46.2233V43.0394V39.8272L31.5538 54.0528V54.05L11.8151 42.9672L11.9407 20.6693L11.9338 20.6659L31.5256 9.78887Z" fill="#17181A"/>
</svg>
