<svg width="96" height="97" viewBox="0 0 96 97" fill="none" xmlns="http://www.w3.org/2000/svg">
<path d="M47.3121 0.043457L90.0334 24.0356V72.0196L68.6728 84.0155L47.3121 96.0114L4.59082 72.0196V24.0356L47.3121 0.043457Z" fill="white"/>
<path d="M47.3114 5.37451L85.286 26.6935V69.3314L47.3114 90.6501L9.33691 69.3314V26.6935L47.3114 5.37451Z" fill="#5985E3"/>
<path d="M47.125 45.653L85.281 26.6875L85.2899 69.3182L47.2982 90.6789L47.125 45.653Z" fill="#386DE6"/>
<path fill-rule="evenodd" clip-rule="evenodd" d="M47.2879 14.6833L76.6866 31.0048L85.2643 26.7289L47.3168 5.36499L47.2879 5.38129L47.2591 5.36499L9.31152 26.7289L9.3329 26.7394L9.32576 69.3226L17.6682 74.0253L17.6696 73.7773V73.9851L47.3303 90.6694V90.6429L85.2733 69.335V64.5591V59.7408L47.3303 81.0791V81.075L17.7222 64.4508L17.9105 31.004L17.9001 30.9988L47.2879 14.6833Z" fill="#17181A"/>
</svg>
