<?xml version="1.0" standalone="no"?>
<!DOCTYPE svg PUBLIC "-//W3C//DTD SVG 20010904//EN"
 "http://www.w3.org/TR/2001/REC-SVG-20010904/DTD/svg10.dtd">
<svg version="1.0" xmlns="http://www.w3.org/2000/svg"
 width="700.000000pt" height="700.000000pt" viewBox="0 0 700.000000 700.000000"
 preserveAspectRatio="xMidYMid meet">
<metadata>
Created by potrace 1.14, written by Peter Selinger 2001-2017
</metadata>
<g transform="translate(0.000000,700.000000) scale(0.100000,-0.100000)"
fill="#000000" stroke="none">
<path d="M3265 6993 c-51 -5 -241 -30 -280 -38 -193 -37 -391 -94 -544 -154
-606 -242 -1095 -660 -1434 -1227 -20 -34 -54 -76 -74 -93 -248 -211 -374
-382 -487 -659 -26 -62 -56 -124 -69 -136 -12 -13 -54 -45 -94 -70 -127 -83
-214 -201 -258 -350 -22 -76 -23 -94 -19 -271 2 -104 6 -217 8 -250 3 -33 7
-127 11 -210 3 -82 8 -190 10 -240 6 -118 19 -414 30 -660 3 -66 7 -173 10
-237 7 -142 24 -213 72 -292 45 -74 156 -187 240 -244 79 -54 102 -85 148
-202 42 -105 108 -245 156 -330 35 -62 172 -272 191 -292 7 -7 39 -44 70 -83
31 -38 74 -89 95 -112 46 -50 411 -284 781 -500 l263 -154 227 -45 c125 -25
261 -49 302 -55 41 -6 90 -12 108 -15 17 -2 47 -6 65 -8 17 -2 68 -9 112 -15
108 -15 150 -18 285 -26 63 -4 133 -8 155 -11 47 -5 271 -5 335 1 25 2 88 6
142 10 53 3 105 7 115 9 16 3 51 7 213 22 30 3 62 7 70 9 8 2 35 7 60 10 154
21 304 47 482 85 l137 29 253 147 c232 135 383 228 528 323 30 20 62 41 71 46
135 79 158 98 256 211 187 214 347 483 459 769 35 91 62 126 133 175 97 65
217 190 259 270 33 60 51 149 57 275 10 224 13 296 20 450 4 83 8 184 10 225
2 41 6 140 10 220 3 80 8 174 10 210 11 178 19 411 19 550 0 140 -2 162 -26
232 -46 139 -147 263 -276 342 -71 43 -89 67 -137 186 -103 256 -249 461 -447
627 -51 42 -90 85 -114 126 -365 609 -894 1042 -1556 1272 -160 56 -398 112
-553 130 -27 4 -61 9 -75 12 -29 6 -477 11 -535 6z m651 -631 c393 -62 743
-190 1068 -391 86 -53 149 -98 271 -193 81 -63 248 -226 325 -318 30 -36 57
-67 60 -70 14 -13 113 -153 155 -220 55 -86 72 -124 79 -171 4 -33 21 -128 31
-179 19 -96 25 -129 29 -160 3 -19 8 -46 10 -60 3 -14 7 -52 11 -85 3 -33 8
-73 10 -90 4 -28 7 -51 21 -185 3 -30 7 -68 9 -85 23 -179 23 -768 0 -1035 -2
-25 -6 -79 -10 -120 -8 -106 -21 -222 -29 -268 -2 -10 -6 -38 -10 -63 -4 -25
-9 -57 -11 -70 -4 -23 -18 -112 -31 -194 -3 -22 -15 -78 -26 -125 -11 -47 -21
-94 -24 -105 -2 -11 -9 -45 -16 -75 -6 -30 -12 -57 -13 -60 -20 -101 -41 -153
-72 -185 -54 -56 -395 -219 -654 -314 -318 -116 -717 -213 -1014 -246 -33 -4
-73 -9 -90 -11 -193 -26 -865 -26 -990 -1 -11 3 -51 8 -90 11 -177 18 -563 97
-725 149 -25 8 -72 22 -105 32 -170 51 -474 173 -646 261 -47 24 -89 44 -92
44 -23 0 -115 74 -134 107 -28 49 -108 397 -148 643 -2 14 -7 45 -10 70 -3 25
-7 56 -10 70 -15 80 -30 198 -40 335 -4 44 -8 96 -10 115 -18 175 -23 578 -11
835 8 181 9 194 25 325 6 47 13 112 16 145 7 66 10 98 20 165 6 46 7 51 18
110 4 19 21 109 37 200 33 180 37 190 159 365 115 166 310 377 462 500 94 76
122 97 189 142 184 123 351 212 540 286 148 58 351 118 475 142 17 3 41 7 55
10 13 3 42 7 65 10 22 3 47 8 55 10 8 3 47 7 85 11 39 3 72 7 74 10 2 2 121 2
265 0 201 -3 291 -8 392 -24z"/>
<path d="M2320 3284 c-77 -33 -112 -91 -112 -186 0 -265 173 -554 442 -735
175 -118 403 -201 640 -233 125 -18 353 -14 455 6 11 3 36 7 55 10 296 46 629
235 791 450 119 158 170 277 185 434 4 36 8 72 9 80 4 27 -23 102 -47 127 -84
91 -223 77 -292 -28 -9 -15 -21 -64 -26 -113 -6 -47 -19 -109 -31 -137 -84
-214 -331 -389 -642 -454 -96 -20 -135 -23 -272 -20 -88 2 -173 6 -190 10 -16
3 -49 10 -72 16 -288 64 -531 242 -612 448 -12 28 -25 90 -31 137 -5 49 -17
98 -26 113 -52 80 -143 110 -224 75z"/>
</g>
</svg>
