<?xml version="1.0" standalone="no"?>
<!DOCTYPE svg PUBLIC "-//W3C//DTD SVG 20010904//EN"
 "http://www.w3.org/TR/2001/REC-SVG-20010904/DTD/svg10.dtd">
<svg version="1.0" xmlns="http://www.w3.org/2000/svg"
 width="516.000000pt" height="516.000000pt" viewBox="0 0 516.000000 516.000000"
 preserveAspectRatio="xMidYMid meet">
<metadata>
Created by potrace 1.14, written by Peter Selinger 2001-2017
</metadata>
<g transform="translate(0.000000,516.000000) scale(0.100000,-0.100000)"
fill="#000000" stroke="none">
<path d="M2530 5151 c0 -5 -9 -12 -19 -16 -16 -5 -97 -49 -351 -193 -25 -14
-61 -34 -80 -45 -19 -11 -69 -38 -110 -62 -41 -23 -82 -45 -90 -48 -8 -4 -28
-15 -45 -26 -26 -15 -170 -97 -335 -189 -25 -14 -60 -34 -77 -44 -62 -35 -99
-55 -293 -163 -107 -60 -197 -112 -200 -115 -3 -3 -25 -16 -50 -29 -74 -39
-133 -71 -165 -90 -34 -20 -100 -57 -195 -109 -36 -19 -82 -46 -102 -59 -21
-13 -42 -23 -48 -23 -5 0 -10 -5 -10 -12 0 -6 -3 -9 -6 -5 -4 3 -25 -7 -48
-22 l-41 -29 1 -1273 c1 -701 2 -1276 3 -1279 0 -3 25 -18 54 -33 28 -16 68
-37 87 -49 29 -17 159 -90 335 -188 22 -13 128 -72 235 -133 107 -60 220 -123
250 -139 30 -16 59 -33 65 -37 5 -5 39 -24 75 -43 84 -46 128 -71 276 -155 66
-38 136 -77 155 -86 18 -10 61 -34 94 -53 33 -19 102 -58 154 -87 51 -28 110
-61 130 -73 154 -86 320 -180 339 -190 24 -12 62 -8 62 7 0 5 5 9 11 9 5 0 56
26 112 59 56 32 129 73 162 91 33 18 74 41 90 50 17 10 104 59 195 110 91 51
181 102 200 113 19 11 60 33 90 49 30 16 59 33 65 37 5 5 39 23 75 42 36 18
67 36 70 40 5 5 84 49 185 103 22 11 42 23 45 26 6 6 86 50 117 65 13 5 23 14
23 18 0 5 5 5 10 2 6 -3 10 -1 10 4 0 6 4 11 10 11 5 0 109 56 230 125 122 69
223 125 224 125 2 0 54 29 116 65 62 36 116 65 119 65 4 0 25 13 45 28 l39 29
-1 1239 c0 681 -1 1256 -1 1276 -1 33 -6 40 -38 58 -21 11 -56 31 -78 44 -22
12 -65 36 -95 53 -98 54 -154 86 -185 105 -16 10 -37 21 -45 25 -8 4 -77 42
-153 85 -75 43 -142 78 -147 78 -6 0 -10 3 -10 8 0 4 -15 13 -32 21 -18 8 -44
22 -58 31 -14 9 -54 33 -90 52 -36 20 -81 45 -100 57 -19 11 -42 24 -50 28 -8
4 -103 56 -210 117 -283 160 -286 161 -380 213 -30 17 -107 60 -170 95 -63 36
-155 88 -205 115 -49 28 -106 60 -125 72 -39 23 -112 61 -117 61 -2 0 -3 -4
-3 -9z"/>
</g>
</svg>
