<?xml version="1.0" standalone="no"?>
<!DOCTYPE svg PUBLIC "-//W3C//DTD SVG 20010904//EN"
 "http://www.w3.org/TR/2001/REC-SVG-20010904/DTD/svg10.dtd">
<svg version="1.0" xmlns="http://www.w3.org/2000/svg"
 width="285.000000pt" height="285.000000pt" viewBox="0 0 285.000000 285.000000"
 preserveAspectRatio="xMidYMid meet">
<metadata>
Created by potrace 1.11, written by Peter Selinger 2001-2013
</metadata>
<g transform="translate(0.000000,285.000000) scale(0.100000,-0.100000)"
fill="#000000" stroke="none">
<path d="M1324 2565 c-50 -29 -122 -69 -160 -90 -38 -21 -73 -41 -79 -45 -5
-4 -41 -25 -80 -45 -38 -21 -88 -49 -110 -62 -22 -12 -47 -26 -55 -30 -8 -4
-40 -21 -70 -39 -30 -17 -77 -44 -105 -59 -27 -15 -90 -50 -140 -78 -49 -28
-107 -60 -127 -71 l-38 -21 3 -600 2 -599 60 -34 c101 -57 167 -93 235 -130
36 -19 77 -43 92 -54 14 -10 29 -18 32 -18 4 0 77 -40 164 -89 502 -285 475
-271 501 -254 12 8 48 29 80 45 31 17 82 46 114 64 32 19 59 34 61 34 2 0 54
29 115 65 62 36 113 65 115 65 2 0 79 43 171 95 92 52 169 95 170 95 2 0 43
23 92 50 48 28 95 54 103 59 13 7 15 86 17 604 1 443 -2 598 -10 605 -17 14
-1034 582 -1049 586 -7 2 -54 -20 -104 -49z"/>
</g>
</svg>
